<?xml version="1.0" encoding="iso-8859-1"?>
<!-- Generator: Adobe Illustrator 19.0.0, SVG Export Plug-In . SVG Version: 6.00 Build 0)  -->
<svg version="1.1" id="Capa_1" xmlns="http://www.w3.org/2000/svg" xmlns:xlink="http://www.w3.org/1999/xlink" x="0px" y="0px"
	 viewBox="0 0 512 512" style="enable-background:new 0 0 512 512;" xml:space="preserve">
<path style="fill:#87DCFA;" d="M512,256c0,140.487-113.677,256-256,256C114.047,512,0,396.835,0,256C0,114.615,114.615,0,256,0
	C397.649,0,512,114.857,512,256z"/>
<path style="fill:#8C8787;" d="M450.901,95.677h-40.836v-8.702c0-5.176,4.196-9.372,9.372-9.372h22.092
	c5.176,0,9.372,4.196,9.372,9.372L450.901,95.677L450.901,95.677z"/>
<path style="fill:#736E6E;" d="M450.901,86.969v8.712h-40.838v-8.712c0-5.172,4.193-9.365,9.365-9.365h0.474v6.281
	c0,1.08,0.875,1.955,1.955,1.955h28.97C450.88,86.21,450.901,86.59,450.901,86.969z"/>
<path style="fill:#B4AAAA;" d="M462.124,90.6h-64.266c-3.415,0-6.182,2.768-6.182,6.182v22.827h76.63V96.783
	C468.306,93.368,465.539,90.6,462.124,90.6z"/>
<path style="fill:#9B9696;" d="M468.302,106.614v12.999h-76.631V96.787c0-3.415,2.769-6.183,6.183-6.183h4.087v12.947
	c0,1.692,1.372,3.064,3.064,3.064C405.004,106.614,468.302,106.614,468.302,106.614z"/>
<path style="fill:#FF4046;" d="M371.368,135.229H188.432l23.717-64.752c1.479-4.038,4.863-6.655,8.606-6.655h118.287
	c3.743,0,7.127,2.617,8.606,6.655L371.368,135.229z"/>
<path style="fill:#EB2F34;" d="M371.369,135.234H188.433l23.722-64.76c1.475-4.034,4.856-6.647,8.605-6.647h13.462l-10.017,27.355
	c-2.023,5.53,2.065,11.397,7.964,11.397h127.234L371.369,135.234z"/>
<path style="fill:#B4AAAA;" d="M118.839,130.767H67.068V106.22c0-8.626,6.993-15.62,15.62-15.62h20.529
	c8.626,0,15.62,6.993,15.62,15.62v24.546H118.839z"/>
<path style="fill:#9B9696;" d="M98.402,90.604c-8.626,0-15.621,6.994-15.621,15.621v24.543H67.065v-24.543
	c0-8.626,6.994-15.621,15.621-15.621C82.686,90.604,98.402,90.604,98.402,90.604z"/>
<path style="fill:#FF5A5F;" d="M489.402,133.073v228.176c-3.751,8.312-7.933,16.404-12.527,24.221
	c-5.31,9.039-11.157,17.721-17.499,26.012H52.614C40.793,396.037,30.7,379.191,22.598,361.28V133.073
	c0-10.388,8.428-18.816,18.816-18.816h429.171C480.973,114.257,489.402,122.685,489.402,133.073z"/>
<circle style="fill:#B4AAAA;" cx="279.905" cy="254.799" r="115.9"/>
<circle style="fill:#8C8787;" cx="279.905" cy="254.799" r="91.753"/>
<circle style="fill:#78BEFF;" cx="279.905" cy="254.799" r="75.56"/>
<path style="fill:#DCD2CD;" d="M150.535,184.4H63.65c-4.218,0-7.638-3.42-7.638-7.638v-24.077c0-4.218,3.42-7.638,7.638-7.638
	h86.887c4.218,0,7.638,3.42,7.638,7.638v24.077C158.173,180.982,154.754,184.4,150.535,184.4z"/>
<circle style="fill:#C8BEB9;" cx="400.851" cy="345.161" r="17.406"/>
<circle style="fill:#ABDCFF;" cx="279.905" cy="254.799" r="48.15"/>
<g>
	<path style="fill:#FF7251;" d="M72.754,359.555c5.537-9.153,6.251-9.33,6.251-11.025c0-2.479-2.816-4.332-5.335-4.332
		c-3.078,0-3.142,2.228-6.692,7.994c-3.536-5.743-3.619-7.994-6.692-7.994c-3.498,0-6.708,3.209-4.723,6.32l5.64,9.038
		c-5.495,8.796-6.474,9.255-6.474,10.982c0,2.712,3.226,4.443,5.447,4.443c3.205,0,3.067-2.774,6.803-8.28l4.041,6.863
		c1.948,3.563,10.493-0.157,7.62-4.926L72.754,359.555z"/>
	<path style="fill:#FF7251;" d="M102.194,359.555c5.537-9.153,6.251-9.33,6.251-11.025c0-2.479-2.816-4.332-5.335-4.332
		c-3.078,0-3.142,2.228-6.692,7.994l-3.563-6.215c-2.392-4.303-10.799-0.077-7.852,4.541l5.64,9.038
		c-5.495,8.796-6.474,9.255-6.474,10.982c0,2.712,3.226,4.443,5.447,4.443c3.205,0,3.067-2.774,6.803-8.28l4.041,6.863
		c1.948,3.563,10.493-0.157,7.62-4.926L102.194,359.555z"/>
	<path style="fill:#FF7251;" d="M131.634,359.555c5.537-9.154,6.251-9.33,6.251-11.025c0-2.479-2.816-4.332-5.335-4.332
		c-3.078,0-3.142,2.228-6.692,7.994l-3.563-6.215c-2.392-4.303-10.799-0.077-7.852,4.541l5.64,9.038
		c-5.495,8.796-6.474,9.255-6.474,10.982c0,2.712,3.226,4.443,5.446,4.443c3.205,0,3.052-2.752,6.804-8.28
		c3.994,5.968,3.671,8.28,6.803,8.28c2.221,0,5.447-1.731,5.447-4.443C138.108,368.81,137.069,368.256,131.634,359.555z"/>
</g>
<path style="fill:#FF4046;" d="M476.875,385.47c-5.31,9.039-11.157,17.721-17.499,26.012H52.614
	C40.793,396.037,30.7,379.191,22.598,361.28c0-0.011-0.011-0.011-0.011-0.021V133.073c0-10.398,8.428-18.827,18.827-18.827h7.196
	v252.397c0,10.398,8.428,18.827,18.827,18.827H476.875z"/>
<path style="fill:#9B9696;" d="M372.692,324.264c-21.147,28.195-54.834,46.436-92.796,46.436
	c-64.006,0-115.896-51.89-115.896-115.896c0-37.953,18.24-71.649,46.426-92.786c-14.513,19.363-23.119,43.416-23.119,69.479
	c0,64.006,51.89,115.895,115.896,115.895C329.276,347.393,353.339,338.787,372.692,324.264z"/>
<path style="fill:#736E6E;" d="M355.386,306.968c-16.551,23.921-44.19,39.585-75.489,39.585c-50.672,0-91.749-41.075-91.749-91.749
	c0-31.3,15.664-58.938,39.585-75.489c-10.267,14.815-16.277,32.79-16.277,52.182c0,50.672,41.075,91.749,91.749,91.749
	C322.586,323.245,340.571,317.234,355.386,306.968z"/>
<path style="fill:#64AFFF;" d="M343.714,295.285c-13.408,21.08-36.98,35.074-63.817,35.074c-41.727,0-75.556-33.829-75.556-75.556
	c0-26.837,13.985-50.409,35.065-63.808c-7.445,11.701-11.758,25.601-11.758,40.5c0,41.727,33.829,75.556,75.556,75.556
	C318.104,307.052,332.004,302.74,343.714,295.285z"/>
<path style="fill:#91CDFF;" d="M324.695,272.467c-7.034,17.849-24.433,30.488-44.799,30.488c-26.587,0-48.151-21.564-48.151-48.151
	c0-20.366,12.639-37.776,30.5-44.809c-2.154,5.473-3.341,11.43-3.341,17.663c0,26.587,21.553,48.151,48.139,48.151
	C313.276,275.809,319.233,274.621,324.695,272.467z"/>
<path style="fill:#C8BEB9;" d="M158.169,173.965v2.802c0,4.213-3.412,7.637-7.637,7.637H63.653c-4.224,0-7.637-3.423-7.637-7.637
	v-24.08c0-4.224,3.412-7.637,7.637-7.637h2.802v21.277c0,4.213,3.412,7.637,7.637,7.637H158.169z"/>
<g>
	<rect x="82.166" y="145.052" style="fill:#78BEFF;" width="15.8" height="39.35"/>
	<rect x="116.216" y="145.052" style="fill:#78BEFF;" width="15.8" height="39.35"/>
</g>
<g>
	<rect x="82.17" y="173.961" style="fill:#64AFFF;" width="15.8" height="10.438"/>
	<rect x="116.216" y="173.961" style="fill:#64AFFF;" width="15.8" height="10.438"/>
</g>
<path style="fill:#B4AAAA;" d="M416.998,351.659c-2.571,6.394-8.827,10.913-16.148,10.913c-9.606,0-17.401-7.795-17.401-17.412
	c0-7.311,4.508-13.567,10.902-16.137c-0.811,2.002-1.254,4.192-1.254,6.489c0,9.606,7.795,17.401,17.412,17.401
	C412.806,352.913,414.997,352.471,416.998,351.659z"/>
<g>
</g>
<g>
</g>
<g>
</g>
<g>
</g>
<g>
</g>
<g>
</g>
<g>
</g>
<g>
</g>
<g>
</g>
<g>
</g>
<g>
</g>
<g>
</g>
<g>
</g>
<g>
</g>
<g>
</g>
</svg>
